<svg width="600" height="215" viewBox="0 0 600 215" fill="none" xmlns="http://www.w3.org/2000/svg">
<g clip-path="url(#clip0_914_6233)">
<rect width="600" height="215" fill="#FFD8CF"/>
<path opacity="0.296782" fill-rule="evenodd" clip-rule="evenodd" d="M72.3388 610.491C-88.3017 538.135 -56.2788 167.016 177.362 123.376C716.659 22.6423 629.817 438.961 521.267 555.899C458.858 623.128 183.241 660.444 72.3388 610.491Z" fill="white"/>
<path d="M367.694 323.661C357.082 315.27 356.353 236.215 359.183 225.897C362.312 214.492 394.506 229.271 394.506 229.271C394.506 229.271 426.433 220.518 436.88 221.958C447.815 223.464 442.296 260.809 434.316 266.638C430.842 269.176 411.937 282.188 402.368 293.64C399.286 297.329 389.488 272.928 387.154 275.825L382.29 313.18C382.29 317.762 378.305 332.052 367.694 323.661Z" fill="#0B5077"/>
<path d="M224.57 280.184C232.165 274.178 232.687 217.597 230.661 210.213C228.422 202.05 205.38 212.628 205.38 212.628C205.38 212.628 180.372 202.023 172.895 203.054C165.069 204.132 168.988 233.509 171.158 245.947C173.329 258.385 171.158 291.772 171.158 291.772C178.934 284.551 185.306 314.312 189.521 305.183C191.727 307.823 208.972 243.873 210.642 245.947L214.123 272.682C214.123 275.961 216.976 286.189 224.57 280.184Z" fill="#0B5077"/>
<path fill-rule="evenodd" clip-rule="evenodd" d="M349.771 176.74C372.025 166.344 372.896 153.315 377.507 139.397C383.011 122.782 371.755 120.488 366.76 132.017C358.718 150.581 355.592 160.18 343.725 165.902C340.192 167.605 342.073 180.335 349.771 176.74Z" fill="#509BC8"/>
<path fill-rule="evenodd" clip-rule="evenodd" d="M349.59 47.7057C355.003 41.0655 365.216 46.8727 373.095 44.6309C398.504 37.3978 412.732 51.9537 412.448 66.8922C411.787 101.71 386.033 87.9126 370.095 86.304C354.206 84.6988 337.842 62.1203 349.59 47.7057Z" fill="#0D6391"/>
<path fill-rule="evenodd" clip-rule="evenodd" d="M377.81 101.42C365.808 97.2969 366.032 91.361 363.147 82.9662C358.43 69.2445 359.997 57.7519 369.919 52.3411C384.802 44.2255 397.686 58.1161 400.48 69.881C403.365 82.0297 403.789 87.6496 402.465 93.7211C400.065 104.72 386.055 104.252 377.81 101.42Z" fill="#88BCDA"/>
<path fill-rule="evenodd" clip-rule="evenodd" d="M374.614 93.1366C363.86 85.3852 404.581 86.9479 404.118 93.379C403.379 103.639 410.892 111.022 417.852 118.735C426.708 128.547 399.091 135.866 389.075 131.605C379.059 127.344 377.292 120.494 378.188 115.249C378.766 111.86 382.003 98.4623 374.614 93.1366Z" fill="#88BCDA"/>
<path fill-rule="evenodd" clip-rule="evenodd" d="M382.252 78.2952C381.539 78.9168 381.25 77.4392 379.82 77.723C377.177 78.247 378.181 80.0188 377.004 79.5649C376.051 79.1995 377.052 76.3235 379.922 76.204C381.865 76.1213 382.719 77.8885 382.252 78.2952Z" fill="#0B5077"/>
<path fill-rule="evenodd" clip-rule="evenodd" d="M367.72 79.6376C366.409 79.9387 366.19 81.0475 365.541 80.435C365.133 80.0501 365.553 78.8712 367.268 78.3691C369.016 77.8566 370.412 78.2909 371.081 79.533C372.757 82.6435 371.448 87.0764 370.727 87.1465C368.805 87.3361 371.199 82.2528 369.87 80.3776C369.161 79.3745 368.266 79.5135 367.72 79.6376Z" fill="#0B5077"/>
<path fill-rule="evenodd" clip-rule="evenodd" d="M400.543 68.6754C404.384 67.5401 405.648 69.8003 406.335 71.4031C408.022 75.3271 405.92 78.0032 401.67 78.2652C399.009 78.4295 398.108 69.3946 400.543 68.6754Z" fill="#88BCDA"/>
<path fill-rule="evenodd" clip-rule="evenodd" d="M365.66 90.5536C368.301 95.5439 369.736 89.0024 371.896 87.6328C373.404 86.6768 374.861 86.1195 378.506 86.5906C384.235 87.3306 398.073 98.7956 397.505 76.2275C397.068 58.8863 392.405 58.8208 382.883 64.7878C375.81 69.2196 357.605 72.5885 357.702 60.3525C357.746 54.8567 370.798 44.2408 386.015 46.3481C395.634 47.681 401.829 67.2145 403.662 75.4094C407.568 92.862 404.95 104.82 382.524 109.556C363.351 113.604 364.063 87.5351 365.66 90.5536Z" fill="#0D6391"/>
<path fill-rule="evenodd" clip-rule="evenodd" d="M373.301 90.9304C373.413 90.3007 374.532 90.835 375.882 90.5971C377.152 90.3742 378.369 89.3952 378.487 89.5423C379.004 90.1904 378.609 91.1613 375.96 91.6945C374.655 91.9587 373.188 91.5612 373.301 90.9304Z" fill="#88BCDA"/>
<path fill-rule="evenodd" clip-rule="evenodd" d="M418.424 114.258C420.083 115.022 438.504 120.123 432.226 167.855C428.631 195.185 427.198 213.749 427.557 226.044C428.011 241.595 355.42 230.173 355.911 223.796C357.103 208.287 357.853 200.335 357.173 184.455C355.255 139.56 373.728 112.516 377.473 113.724C380.648 114.749 373.779 120.491 387.274 122.009C400.098 123.45 412.158 111.374 418.424 114.258Z" fill="white"/>
<path fill-rule="evenodd" clip-rule="evenodd" d="M332.879 179.937C338.676 195.072 340.935 191.431 352.309 188.372C356.01 187.377 355.143 181.275 352.228 173.137C351.351 170.689 346.91 159.209 346.169 157.474C342.74 149.449 340.423 148.489 336.149 149.234C331.374 150.067 326.807 150.512 324.461 153.189C323.155 154.68 324.98 158.824 326.054 162.116C326.91 164.741 331.678 176.802 332.879 179.937Z" fill="#FEA992"/>
<path fill-rule="evenodd" clip-rule="evenodd" d="M332.552 180.044C338.147 194.941 340.038 191.477 350.023 188.877C353.272 188.03 352.319 182.072 349.488 174.07C348.635 171.661 344.354 160.36 343.645 158.65C340.363 150.74 338.282 149.732 334.516 150.316C330.312 150.969 326.278 151.252 324.281 153.777C323.169 155.184 324.912 159.27 325.963 162.503C326.803 165.084 331.393 176.958 332.552 180.044Z" fill="#FE6340"/>
<path fill-rule="evenodd" clip-rule="evenodd" d="M333.922 164.099C333.922 164.099 332.6 166.729 335.244 167.187C337.889 167.644 338 167.073 337.889 165.471C337.778 163.871 335.244 162.499 333.922 164.099Z" fill="#FEA992"/>
<path fill-rule="evenodd" clip-rule="evenodd" d="M359.268 176.791C354.845 173.641 353.124 164.55 349.002 164.55C348.891 164.55 351.609 171.261 351.206 171.123C346.786 169.629 338.411 168.753 338.992 172.332C340.008 178.594 339.653 178.849 348.278 184.285C354.617 188.28 368.53 207.94 388.074 203.064C412.422 196.988 422.019 172.154 427.762 159.624C428.938 157.059 423.962 142.816 416.195 148.951C407.05 156.18 403.28 182.021 385.111 186.454C373.458 189.297 368.227 183.175 359.268 176.791Z" fill="#88BCDA"/>
<path fill-rule="evenodd" clip-rule="evenodd" d="M404.292 157.736C401.918 163.236 418.193 176.842 423.103 173.668C427.418 170.879 432.197 158.156 430.076 147.102C427.915 135.831 420.614 137.897 415.53 140.241C409.58 142.986 405.625 154.645 404.292 157.736Z" fill="white"/>
<path fill-rule="evenodd" clip-rule="evenodd" d="M326.087 170.698C324.593 177.019 328.971 183.75 331.316 183.931C334.914 184.205 336.037 184.551 335.393 180.5C334.067 172.154 330.1 173.966 329.111 171.01C328.176 168.208 327.846 167.179 327.679 167.293C326.672 167.99 326.457 169.13 326.087 170.698Z" fill="#509BC8"/>
<path fill-rule="evenodd" clip-rule="evenodd" d="M222.271 88.0718C229.916 85.475 232.593 79.1335 234.552 72.4599C237.414 62.7 234.586 44.7947 225.229 41.2741C211.192 35.9943 202.151 54.2949 198.8 63.8847C195.449 73.4757 197.914 79.5173 197.596 84.7695C197.089 93.1494 192.516 98.9692 185.233 102.949C175.77 108.12 206.041 123.853 214.968 121.846C223.898 119.838 220.885 108.977 219.219 104.883C214.439 93.1344 216.483 90.0366 222.271 88.0718Z" fill="#88BCDA"/>
<path fill-rule="evenodd" clip-rule="evenodd" d="M236.894 54.6089C236.266 64.8904 211.666 44.7387 208.375 53.8793C202.366 70.5747 197.959 62.4614 198.42 77.0311C198.793 88.8213 174.597 55.0582 202.796 36.3094C213.678 29.0729 238.126 34.3986 236.894 54.6089Z" fill="#0B5077"/>
<path fill-rule="evenodd" clip-rule="evenodd" d="M216.232 67.0498C216.227 66.1743 216.564 65.7285 217.411 65.4435C218.154 65.193 218.789 65.81 218.919 66.2834C219.209 67.3532 218.377 69.0871 217.27 68.747C216.518 68.5149 216.237 67.7795 216.232 67.0498Z" fill="#083752"/>
<path fill-rule="evenodd" clip-rule="evenodd" d="M229.334 67.0104C229.33 66.2647 229.618 65.8832 230.34 65.6396C230.974 65.4271 231.517 65.9533 231.625 66.3578C231.874 67.2701 231.164 68.7501 230.22 68.4594C229.579 68.2617 229.338 67.6332 229.334 67.0104Z" fill="#083752"/>
<path fill-rule="evenodd" clip-rule="evenodd" d="M225.007 79.1219C226.858 77.6305 225.826 77.1743 224.437 77.7925C222.758 78.5382 221.513 76.2757 220.435 77.75C219.714 78.7335 223.111 80.6467 225.007 79.1219Z" fill="white"/>
<path fill-rule="evenodd" clip-rule="evenodd" d="M212.135 61.8445C214.752 60.5794 217.452 60.4185 219.671 61.8628C220.122 62.1558 220.31 62.7545 220.093 63.198C219.873 63.6427 219.327 63.4772 218.882 63.175C217.531 62.2627 215.447 62.1386 212.305 63.6542C211.872 63.8633 211.223 64.0012 211.005 63.4956C210.812 63.0486 211.23 62.2822 212.135 61.8445Z" fill="#0B5077"/>
<path fill-rule="evenodd" clip-rule="evenodd" d="M231.378 61.0553C232.597 60.5946 233.729 60.4601 234.848 60.652C235.99 60.8485 235.793 61.585 235.566 62.0136C235.249 62.6111 232.979 62.0538 231.509 62.5203C230.099 62.9696 227.799 64.3565 227.975 68.5654C228.148 72.672 225.869 73.2155 225.514 72.7168C225.047 72.0676 226.17 71.9711 226.618 71.6069C227.532 70.86 226.642 66.5948 227.309 64.8448C228.115 62.7306 229.122 61.9079 231.378 61.0553Z" fill="#0B5077"/>
<path fill-rule="evenodd" clip-rule="evenodd" d="M201.35 67.7316C198.094 65.6255 196.522 67.0905 195.596 68.1913C193.327 70.8892 194.719 73.7238 198.511 75.2394C200.883 76.1885 203.415 69.0668 201.35 67.7316Z" fill="#88BCDA"/>
<path fill-rule="evenodd" clip-rule="evenodd" d="M174.139 130.258C168.503 145.332 174.139 196.911 165.141 215.206C162.952 219.657 186.743 225.292 199.332 225.292C216.01 225.292 240.09 222.577 240.09 221.048C240.09 206.688 238.069 177.853 237.109 160.912C235.364 130.129 222.084 101.43 218.649 102.595C217.057 103.134 225.146 118.109 213.266 115.611C204.755 113.822 197.028 102.017 190.073 100.283C187.623 99.6718 185.541 99.7552 174.139 130.258Z" fill="white"/>
<path fill-rule="evenodd" clip-rule="evenodd" d="M181.035 198.186C184.636 208.62 187.699 210.199 193.37 208.855C196.939 208.009 195.939 205.225 193.168 197.572C192.895 196.815 196.586 201.375 197.155 200.096C198.363 197.382 196.632 198.26 191.053 190.216C187.695 185.374 184.8 176.661 183.165 161.566C181.978 150.607 184.893 137.443 187.848 124.753C184.937 124.939 177.84 123.945 173.895 123.089C168.525 137.398 167.498 152.452 171.223 168.273C174.101 180.502 176.416 184.799 181.035 198.186Z" fill="#88BCDA"/>
<path fill-rule="evenodd" clip-rule="evenodd" d="M187.909 129.883C185.691 133.965 168.486 128.446 169.857 124.068C170.675 121.456 174.821 109.655 181.407 103.706C186.555 99.0531 193.94 98.0248 196.193 106.489C197.293 110.612 189.156 127.588 187.909 129.883Z" fill="white"/>
<path fill-rule="evenodd" clip-rule="evenodd" d="M279.414 156.812C278.472 156.92 274.676 158.195 272.833 158.94C270.992 159.683 269.524 161.266 268.825 163.154C268.603 163.755 268.778 166.657 268.912 167.285C269.333 169.253 270.717 180.385 266.559 187.647C257.492 203.484 241.789 186.422 241.84 187.767C241.84 187.767 223.073 191.253 238.566 199.752C255.501 209.044 261.895 207.271 271.308 198.053C279.734 189.802 276.703 172.39 276.703 172.39C276.485 170.248 276.828 167.925 277.13 166.434C277.276 165.709 277.527 165.017 277.817 164.34C278.127 163.612 278.299 162.163 276.312 160.293C279.699 158.726 283.434 156.349 279.414 156.812Z" fill="#88BCDA"/>
<path fill-rule="evenodd" clip-rule="evenodd" d="M311.091 153.109C305.157 162.912 296.433 178.632 293.231 182.412C290.028 186.193 285.781 176.509 285.125 173.387C284.469 170.266 292.716 157.009 296.894 149.678C301.071 142.344 301.293 138.77 305.84 140.318C310.596 141.935 318.745 140.466 311.091 153.109Z" fill="#FE6340"/>
<path fill-rule="evenodd" clip-rule="evenodd" d="M305.701 152.956C301.334 160.172 295.328 171.957 292.971 174.739C290.615 177.522 288.484 172.488 288.003 170.19C287.52 167.892 295.079 155.06 298.154 149.663C301.228 144.266 301.331 142.295 304.676 143.434C308.175 144.624 311.335 143.651 305.701 152.956Z" fill="white"/>
<path fill-rule="evenodd" clip-rule="evenodd" d="M300.664 156.158C301.525 156.672 302.163 157.996 300.974 157.627C299.783 157.259 298.42 156.414 297.326 155.872C296.233 155.329 295.788 154.054 296.851 154.359C297.914 154.661 299.556 155.495 300.664 156.158Z" fill="#0B5077"/>
<path fill-rule="evenodd" clip-rule="evenodd" d="M302.251 153.489C303.111 154.004 303.75 155.328 302.56 154.959C301.37 154.591 300.006 153.747 298.912 153.204C297.819 152.661 297.374 151.386 298.437 151.691C299.501 151.993 301.142 152.827 302.251 153.489Z" fill="#0B5077"/>
<path fill-rule="evenodd" clip-rule="evenodd" d="M299.429 158.743C300.29 159.258 301 160.573 299.811 160.204C298.622 159.837 297.416 159.101 296.322 158.56C295.229 158.017 294.552 156.64 295.616 156.944C296.68 157.247 298.322 158.081 299.429 158.743Z" fill="#0B5077"/>
<path fill-rule="evenodd" clip-rule="evenodd" d="M298.194 161.327C299.441 162.124 298.75 162.81 298.436 162.674C297.294 162.17 297.574 162.393 296.481 161.851C295.388 161.307 294.978 160.079 296.041 160.382C297.104 160.686 297.105 160.632 298.194 161.327Z" fill="#0B5077"/>
<path fill-rule="evenodd" clip-rule="evenodd" d="M294.921 168.7C295.291 169.526 293.306 172.761 292.317 172.756C291.604 172.754 290.889 171.355 289.811 169.87C288.904 168.618 288.639 168.011 289.214 167.215C289.788 166.42 290.438 165.324 291.554 165.896C292.669 166.466 294.366 167.467 294.921 168.7Z" fill="#3DBA7A"/>
<path fill-rule="evenodd" clip-rule="evenodd" d="M304.686 147.347C305.027 147.923 303.827 150.483 303.097 150.568C302.572 150.628 302.369 150.366 301.274 149.58C300.563 149.072 300.688 148.717 300.967 147.919C301.211 147.227 301.721 146.003 302.589 146.326C303.459 146.65 304.176 146.485 304.686 147.347Z" fill="#157DB6"/>
<path fill-rule="evenodd" clip-rule="evenodd" d="M256.194 151.862C257.769 150.016 262.671 145.894 263.603 135.397C265.471 114.379 262.309 104.198 251.837 102.101C236.129 98.957 230.529 113.203 228.616 123.499C226.701 133.794 233.607 146.012 232.64 153.753C231.851 160.075 230.75 164.847 224.376 173.284C217.542 182.328 231.447 185.749 240.531 182.287C249.617 178.825 256.394 178.816 255.409 174.262C254.084 168.129 253.849 154.613 256.194 151.862Z" fill="#88BCDA"/>
<path fill-rule="evenodd" clip-rule="evenodd" d="M245.387 97.1777C256.003 94.2029 266.458 106.108 263.619 113.402C260.966 120.222 254.106 118.195 254.546 138.64C254.813 150.995 250.442 161.007 238.245 157.605C229.324 155.116 228.045 154.734 222.076 137.703C217.007 123.233 218.221 116.454 222.986 109.02C228.997 99.6378 236.523 99.6607 245.387 97.1777Z" fill="#0B5077"/>
<path fill-rule="evenodd" clip-rule="evenodd" d="M255.183 143.956C250.306 145.154 249 141.499 248.654 139.479C247.807 134.531 250.354 132.073 254.49 132.969C257.078 133.531 257.612 143.358 255.183 143.956Z" fill="#86BAD8"/>
<path fill-rule="evenodd" clip-rule="evenodd" d="M306.986 182.774C305.59 176.458 304.428 171.536 302.046 168.475C302.046 168.475 300.227 170.749 298.444 174.527C297.913 175.653 298.314 176.987 297.976 178.455C297.872 178.276 297.765 178.097 297.65 177.92C294.666 173.303 294.066 176.054 294.066 176.054C293.905 178.393 297.722 181.214 298.612 187.084C298.75 189.504 299.357 194.812 299.097 197.043C298.476 202.349 295.999 210.482 294.597 210.877C293.026 211.321 280.994 195.313 275.591 189.98C264.376 178.91 256.409 193.37 265.398 204.284C274.995 215.935 285.622 225.561 293.087 228.898C297.971 231.08 303.034 227.922 305.49 221.99C308.164 215.533 309.585 208.745 309.624 201.512C309.66 195.137 308.525 189.739 306.986 182.774Z" fill="#88BCDA"/>
<path fill-rule="evenodd" clip-rule="evenodd" d="M258.092 176.1C259.459 172.125 273.879 186.124 283.885 196.007C286.496 198.585 278.426 210.613 273.867 214.949C269.831 218.785 269.619 207.743 257.376 203.821C252.131 202.141 255.625 183.261 258.092 176.1Z" fill="white"/>
<path fill-rule="evenodd" clip-rule="evenodd" d="M256.339 173.72C275.094 176.643 268.959 192.558 273.147 225.862C278.534 268.713 276.379 279.146 248.369 281.01C225.17 282.553 219.75 274.103 215.332 267.595C211.103 261.366 213.013 221.855 213.609 208.777C214.901 180.452 225.306 167.274 227.935 167.843C228.471 167.958 224.746 171.18 231.527 173.207C243.051 176.65 252.823 173.171 256.339 173.72Z" fill="white"/>
</g>
<defs>
<clipPath id="clip0_914_6233">
<rect width="600" height="215" fill="white"/>
</clipPath>
</defs>
</svg>
