<svg width="240" height="240" viewBox="0 0 240 240" fill="none" xmlns="http://www.w3.org/2000/svg">
<mask id="mask0_905_3583" style="mask-type:luminance" maskUnits="userSpaceOnUse" x="16" y="25" width="209" height="196">
<path fill-rule="evenodd" clip-rule="evenodd" d="M16 25.0205H224.44V220.794H16V25.0205Z" fill="white"/>
</mask>
<g mask="url(#mask0_905_3583)">
<path fill-rule="evenodd" clip-rule="evenodd" d="M200.093 196.439C168.367 212.422 88.1893 232.656 55.0381 212.072C-1.25227 177.121 1.6499 48.6946 74.7274 30.9442C243.564 -10.0676 243.579 174.532 200.093 196.439Z" fill="#E6F6EE"/>
</g>
<mask id="mask1_905_3583" style="mask-type:luminance" maskUnits="userSpaceOnUse" x="125" y="13" width="61" height="68">
<path fill-rule="evenodd" clip-rule="evenodd" d="M125.521 13.0938H185.731V80.8347H125.521V13.0938Z" fill="white"/>
</mask>
<g mask="url(#mask1_905_3583)">
<path fill-rule="evenodd" clip-rule="evenodd" d="M128.074 29.0854C129.812 23.9412 128.081 10.5966 144.154 14.308C154.374 16.665 162.362 10.0587 170.905 14.9413C177.342 18.6234 180.149 20.2297 184.342 36.7259C188.093 51.4886 183.795 55.2954 176.858 66.1975C170.487 76.2071 171.743 72.8184 169.054 79.2707C165.985 86.6276 141.927 65.8576 135.345 61.9701C130.243 58.9579 121.037 49.9116 128.074 29.0854Z" fill="#0B5178"/>
</g>
<path fill-rule="evenodd" clip-rule="evenodd" d="M80.7284 164.745C108.217 157.675 111.738 145.33 119.679 130.87C129.161 113.611 116.699 108.846 108.772 120.589C96.0118 139.499 90.5987 149.482 75.9045 153.45C71.5329 154.631 71.2199 167.19 80.7284 164.745Z" fill="#89BCDA"/>
<path fill-rule="evenodd" clip-rule="evenodd" d="M116.365 126.454C110.272 123.432 104.091 121.229 106.074 118.266C114.56 105.57 130.993 95.0537 137.641 94.0342C137.641 94.0342 122.088 129.293 116.365 126.454Z" fill="#FEFEFE"/>
<path fill-rule="evenodd" clip-rule="evenodd" d="M136.908 77.0157C128.294 72.0524 126.602 63.9816 125.862 55.7078C124.781 43.6077 132.57 23.4539 144.746 21.718C163.015 19.1165 169.485 42.7373 171.196 54.7641C172.912 66.7909 168.455 73.2089 167.558 79.4118C166.128 89.309 170.24 97.2502 178.076 103.734C188.259 112.157 150.321 123.507 140.013 118.905C129.703 114.306 135.886 102.179 138.539 97.6023C146.27 84.2699 143.429 80.7711 136.908 77.0157Z" fill="#89BCDA"/>
<path fill-rule="evenodd" clip-rule="evenodd" d="M129.112 29.4724C128.303 41.7143 158.892 29.333 162.819 40.2694C166.425 50.3108 173.249 49.6287 170.86 66.9708C168.946 80.89 183.689 35.3379 163.393 22.514C149.892 13.986 130.103 14.497 129.112 29.4724Z" fill="#0B5178"/>
<path fill-rule="evenodd" clip-rule="evenodd" d="M172.787 94.8905C175.577 94.6876 187.934 95.4798 195.922 127.721C199.868 143.655 201.953 157.284 198.369 174.347C195.12 189.809 184.279 199.092 149.895 205.016C123.773 209.515 112.412 214.041 111.935 199.601C111.46 185.159 110.989 164.474 111.913 147.421C113.685 114.753 137.367 90.7243 140.976 92.4529C142.648 93.2548 129.548 108.384 143.003 107.868C152.646 107.499 164.871 95.4626 172.787 94.8905Z" fill="#FEFEFE"/>
<path fill-rule="evenodd" clip-rule="evenodd" d="M148.808 52.9214C149.084 51.9166 148.82 51.2955 147.896 50.6965C147.087 50.1709 146.138 50.6794 145.837 51.1831C145.163 52.32 145.62 54.5791 147.048 54.5425C148.016 54.5156 148.576 53.7601 148.808 52.9214Z" fill="#0B3752"/>
<path fill-rule="evenodd" clip-rule="evenodd" d="M131.049 47.28C131.286 46.4218 131.061 45.8913 130.271 45.3803C129.579 44.9328 128.77 45.3656 128.516 45.7959C127.939 46.7666 128.33 48.6956 129.547 48.6614C130.374 48.6394 130.853 47.9939 131.049 47.28Z" fill="#0B3752"/>
<path fill-rule="evenodd" clip-rule="evenodd" d="M135.814 62.6509C134.064 60.3453 135.435 60.1472 136.902 61.3037C138.677 62.6998 140.861 60.4944 141.694 62.5335C142.252 63.8978 137.606 65.0127 135.814 62.6509Z" fill="#FEFEFE"/>
<path fill-rule="evenodd" clip-rule="evenodd" d="M155.799 48.1421C152.89 46.0761 149.643 45.2864 146.638 46.482C146.024 46.7241 145.665 47.3842 145.839 47.9514C146.007 48.5236 146.707 48.4502 147.313 48.1959C149.152 47.4282 151.711 47.7461 155.203 50.2228C155.684 50.5651 156.445 50.8707 156.816 50.3279C157.149 49.8463 156.804 48.8561 155.799 48.1421Z" fill="#0B5178"/>
<path fill-rule="evenodd" clip-rule="evenodd" d="M133.816 42.0425C131.679 40.9129 128.618 41.3285 127.444 41.7051C126.268 42.0791 125.694 42.9911 125.885 43.5412C126.1 44.1671 126.726 43.5779 127.286 43.397C128.635 42.9593 132.312 43.0522 133.339 43.4997C135.677 44.5192 135.833 46.1255 134.325 50.9103C132.853 55.5802 135.405 56.9347 135.985 56.4751C136.74 55.8761 135.43 55.4066 135.007 54.8443C134.146 53.6927 136.378 49.3309 136.635 47.1035C136.936 44.4996 136.393 43.4092 133.816 42.0425Z" fill="#0B5178"/>
<path fill-rule="evenodd" clip-rule="evenodd" d="M164.788 153.334C164.5 169.575 169.479 204.022 159.801 215.931C146.38 232.445 107.069 227.412 88.308 226.653C81.6382 226.384 70.4014 223.413 69.5368 201.068C66.7897 130.013 53.5292 121.075 120.543 121.647C126.803 121.699 150.206 123.143 156.104 127.76C162.682 132.909 164.986 142.15 164.788 153.334Z" fill="white"/>
<path fill-rule="evenodd" clip-rule="evenodd" d="M101.46 130.262C92.5669 139.459 94.4724 156.293 100.99 164.617C112.057 178.753 148.3 170.97 149.115 151.709C150.798 111.946 111.965 119.399 101.46 130.262Z" fill="#BFE9D3"/>
<path fill-rule="evenodd" clip-rule="evenodd" d="M99.2475 195.169C94.0083 195.077 90.9662 192.696 94.3162 191.608C97.6666 190.519 113.727 191.878 118.658 191.988C123.589 192.097 126.302 192.344 126.262 194.51C126.22 196.841 117.39 195.574 110.618 195.514C104.528 195.461 99.2475 195.169 99.2475 195.169Z" fill="#FFECEA"/>
<path fill-rule="evenodd" clip-rule="evenodd" d="M85.2449 205.211C85.3737 208.97 82.9314 214.587 94.0042 214.32C105.577 214.04 117.14 214.186 124.246 213.918C131.352 213.65 134.492 211.507 134.326 206.551C134.161 201.594 132.178 201.594 118.297 201.594C104.415 201.594 85.0796 200.388 85.2449 205.211Z" fill="#FFECEA"/>
<path fill-rule="evenodd" clip-rule="evenodd" d="M87.342 186.751C83.908 186.173 82.2708 183.499 87.186 182.897C92.1018 182.295 103.575 182.783 110.964 183.07C118.354 183.356 131.523 184.615 133.067 184.667C134.611 184.719 137.545 187.766 131.074 188.134C124.603 188.501 102.296 186.575 96.9104 186.668C91.5246 186.761 88.7873 186.994 87.342 186.751Z" fill="#FFECEA"/>
<path fill-rule="evenodd" clip-rule="evenodd" d="M79.4057 149.455C75.546 150.357 74.0981 152.623 75.4643 155.135C76.6999 157.407 79.6025 156.063 81.0549 155.588C85.0634 154.278 88.62 154.039 86.5464 150.542C84.4729 147.045 82.3802 148.524 79.4057 149.455Z" fill="#F7CF12"/>
<path fill-rule="evenodd" clip-rule="evenodd" d="M77.8193 126.695C72.6343 123.925 69.0977 124.169 68.5983 127.036C68.1469 129.627 72.5966 131.267 74.6594 132.219C80.3549 134.846 84.645 137.793 85.1427 133.654C85.6407 129.515 82.0121 128.672 77.8193 126.695Z" fill="#F7CF12"/>
<mask id="mask2_905_3583" style="mask-type:luminance" maskUnits="userSpaceOnUse" x="155" y="169" width="12" height="9">
<path fill-rule="evenodd" clip-rule="evenodd" d="M155.727 169.633H166.551V177.082H155.727V169.633Z" fill="white"/>
</mask>
<g mask="url(#mask2_905_3583)">
<path fill-rule="evenodd" clip-rule="evenodd" d="M162.752 170.806C166.151 171.773 167.347 173.852 166.025 176.033C164.83 178.004 162.3 176.684 161.026 176.199C157.51 174.862 154.352 174.499 156.346 171.472C158.338 168.444 160.14 169.85 162.752 170.806Z" fill="#F7CF12"/>
</g>
<path fill-rule="evenodd" clip-rule="evenodd" d="M154.985 183.176C156.629 186.323 155.952 188.628 153.471 189.163C151.227 189.647 150.438 186.892 149.91 185.629C148.452 182.142 146.54 179.587 150.095 178.958C153.649 178.328 153.876 180.612 154.985 183.176Z" fill="#F7CF12"/>
<path fill-rule="evenodd" clip-rule="evenodd" d="M108.06 158.565C109.15 148.881 111.004 132.403 119.855 133.211C128.599 134.009 128.275 154.656 127.175 161.579L126.9 163.309C127.202 165.131 122.768 165.491 122.285 162.576C122.098 161.444 122.084 158.856 122.069 155.812C122.066 155.161 122.062 154.489 122.057 153.806C119.296 154.448 115.436 154.865 113.404 153.512C113.365 153.885 113.328 154.258 113.29 154.63C113.016 157.33 112.747 159.98 112.296 162.171C111.824 164.462 107.313 164.091 107.864 160.284C107.927 159.741 107.992 159.166 108.06 158.565ZM113.965 148.834C116.083 149.161 120.367 149.607 121.969 148.991C121.806 144.183 121.352 139.954 120 139.739C116.193 139.134 114.766 143.439 113.965 148.834Z" fill="#224E3A"/>
<path d="M119.855 133.211L119.9 132.713L119.855 133.211ZM108.06 158.565L108.557 158.621L108.06 158.565ZM127.175 161.579L126.681 161.5L127.175 161.579ZM126.9 163.309L126.406 163.231L126.393 163.311L126.407 163.391L126.9 163.309ZM122.285 162.576L121.792 162.657L122.285 162.576ZM122.069 155.812L122.569 155.809L122.069 155.812ZM122.057 153.806L122.557 153.802L122.552 153.178L121.944 153.319L122.057 153.806ZM113.404 153.512L113.681 153.095L112.992 152.636L112.907 153.46L113.404 153.512ZM113.29 154.63L112.792 154.58L112.792 154.58L113.29 154.63ZM112.296 162.171L111.806 162.07L112.296 162.171ZM107.864 160.284L108.359 160.356L108.361 160.342L107.864 160.284ZM121.969 148.991L122.148 149.458L122.481 149.33L122.468 148.974L121.969 148.991ZM113.965 148.834L113.471 148.76L113.398 149.252L113.889 149.328L113.965 148.834ZM119.9 132.713C117.503 132.494 115.581 133.458 114.061 135.134C112.556 136.792 111.434 139.156 110.571 141.798C108.847 147.085 108.106 153.679 107.563 158.509L108.557 158.621C109.103 153.767 109.835 147.28 111.522 142.108C112.366 139.522 113.435 137.312 114.801 135.806C116.152 134.317 117.781 133.524 119.809 133.709L119.9 132.713ZM127.669 161.657C128.226 158.153 128.584 151.21 127.701 145.028C127.26 141.939 126.504 138.999 125.28 136.766C124.054 134.529 122.314 132.933 119.9 132.713L119.809 133.709C121.768 133.887 123.266 135.172 124.404 137.247C125.544 139.327 126.278 142.131 126.711 145.169C127.578 151.241 127.224 158.082 126.681 161.5L127.669 161.657ZM127.394 163.388L127.669 161.657L126.681 161.5L126.406 163.231L127.394 163.388ZM121.792 162.657C122.085 164.425 123.586 165.166 124.866 165.219C125.507 165.245 126.157 165.107 126.644 164.794C127.148 164.47 127.509 163.927 127.393 163.227L126.407 163.391C126.442 163.602 126.361 163.787 126.104 163.952C125.83 164.128 125.397 164.24 124.907 164.219C123.926 164.179 122.969 163.642 122.778 162.494L121.792 162.657ZM121.569 155.815C121.577 157.335 121.584 158.748 121.613 159.923C121.641 161.089 121.692 162.052 121.792 162.657L122.778 162.494C122.691 161.967 122.641 161.071 122.612 159.899C122.584 158.735 122.577 157.333 122.569 155.809L121.569 155.815ZM121.557 153.81C121.562 154.492 121.566 155.164 121.569 155.815L122.569 155.809C122.566 155.159 122.562 154.486 122.557 153.802L121.557 153.81ZM113.127 153.928C114.27 154.689 115.867 154.923 117.462 154.907C119.074 154.892 120.767 154.62 122.17 154.293L121.944 153.319C120.586 153.635 118.968 153.893 117.452 153.907C115.919 153.922 114.57 153.688 113.681 153.095L113.127 153.928ZM113.787 154.681C113.825 154.308 113.863 153.936 113.901 153.563L112.907 153.46C112.868 153.834 112.83 154.208 112.792 154.58L113.787 154.681ZM112.785 162.272C113.243 160.051 113.514 157.373 113.787 154.681L112.792 154.58C112.517 157.287 112.251 159.909 111.806 162.07L112.785 162.272ZM107.369 160.213C107.217 161.264 107.409 162.13 107.841 162.783C108.27 163.432 108.908 163.831 109.574 163.999C110.852 164.322 112.471 163.801 112.785 162.272L111.806 162.07C111.649 162.832 110.776 163.271 109.819 163.03C109.367 162.916 108.952 162.651 108.675 162.232C108.401 161.816 108.236 161.207 108.359 160.356L107.369 160.213ZM107.563 158.509C107.495 159.11 107.431 159.684 107.368 160.226L108.361 160.342C108.424 159.798 108.489 159.222 108.557 158.621L107.563 158.509ZM121.789 148.525C121.462 148.65 120.956 148.735 120.31 148.773C119.675 148.811 118.942 148.804 118.185 148.767C116.67 148.692 115.087 148.501 114.041 148.34L113.889 149.328C114.96 149.493 116.579 149.689 118.136 149.765C118.914 149.804 119.686 149.813 120.37 149.771C121.045 149.731 121.675 149.64 122.148 149.458L121.789 148.525ZM119.922 140.233C119.999 140.245 120.182 140.341 120.402 140.812C120.61 141.255 120.789 141.904 120.938 142.731C121.234 144.379 121.388 146.608 121.469 149.008L122.468 148.974C122.387 146.566 122.232 144.277 121.922 142.554C121.768 141.696 121.57 140.947 121.308 140.387C121.058 139.854 120.677 139.341 120.078 139.246L119.922 140.233ZM114.46 148.907C114.859 146.215 115.407 143.87 116.292 142.28C116.731 141.492 117.237 140.921 117.818 140.577C118.39 140.239 119.073 140.098 119.922 140.233L120.078 139.246C119.023 139.078 118.101 139.248 117.309 139.716C116.527 140.178 115.912 140.907 115.418 141.794C114.438 143.554 113.872 146.058 113.471 148.76L114.46 148.907Z" fill="#224E3A"/>
<path d="M132.231 132.135C132.231 132.135 133.399 135.639 132.231 136.808C131.063 137.976 128.727 136.691 128.727 138.56C128.727 140.896 132.815 139.006 132.815 140.312C132.815 140.896 132.815 141.48 132.231 143.816C131.764 145.685 135.151 144.985 135.151 143.816V140.312C135.151 138.56 135.735 139.728 138.656 139.728C140.992 139.728 139.824 136.808 138.072 136.808C138.072 136.808 135.151 137.392 135.151 136.223C135.151 135.055 135.619 134.588 135.151 132.719C134.684 130.85 132.231 130.967 132.231 132.135Z" fill="#224E3A" stroke="#224E3A"/>
<path fill-rule="evenodd" clip-rule="evenodd" d="M160.166 196.274C153.914 198.849 147.907 192.267 146.132 193.35C145.384 193.803 149.347 198.399 149.025 198.516C143.611 200.49 139.32 198.705 138.981 202.37C138.264 210.103 144.391 211.607 153.609 210.668C162.831 209.732 179.176 204.864 193.567 195.208C216.051 180.128 201.885 139.967 196.07 125.796C188.024 106.185 170.164 115.278 175.535 127.454C180.802 139.392 195.029 169.155 183.359 180.991C177.049 187.389 171.237 191.715 160.166 196.274Z" fill="#89BCDA"/>
<path fill-rule="evenodd" clip-rule="evenodd" d="M175.173 139.985C177.5 145.852 201.901 139.566 200.776 133.354C200.104 129.645 196.461 112.867 188.493 104.041C182.266 97.1415 172.371 95.1073 167.86 106.714C165.657 112.371 173.862 136.684 175.173 139.985Z" fill="#FEFEFE"/>
<path fill-rule="evenodd" clip-rule="evenodd" d="M63.4556 171.545C59.5656 177.032 60.3456 184.43 63.9079 186.535C67.4702 188.64 70.5704 188.914 71.3039 184.807C72.8124 176.347 67.2306 176.486 67.7611 173.35C68.6218 168.281 68.436 168.907 66.5191 168.65C64.6023 168.396 64.4213 170.183 63.4556 171.545Z" fill="#89BCDA"/>
<path fill-rule="evenodd" clip-rule="evenodd" d="M174.896 52.8899C175.353 55.3153 173.39 58.4938 171.688 58.8116C169.991 59.1344 169.204 56.4743 168.744 54.0489C168.289 51.6235 166.104 47.6773 170.991 49.0782C172.654 49.555 174.439 50.4645 174.896 52.8899Z" fill="#89BCDA"/>
</svg>
