<svg width="240" height="240" viewBox="0 0 240 240" fill="none" xmlns="http://www.w3.org/2000/svg">
<g clip-path="url(#clip0_905_3499)">
<path fill-rule="evenodd" clip-rule="evenodd" d="M172.349 32.3383C199.695 37.7613 236.106 59.9592 237.618 134.997C239.855 245.998 113.098 234.458 77.0261 181.354C-9.38918 54.1368 124.784 22.9045 172.349 32.3383Z" fill="#E6F6EE"/>
<path fill-rule="evenodd" clip-rule="evenodd" d="M232.702 62.9706C232.34 83.4409 238.616 126.858 226.417 141.868C209.502 162.683 159.953 156.339 136.306 155.383C127.899 155.044 113.736 151.299 112.647 123.135C109.184 33.5762 92.4705 22.3102 176.936 23.0309C184.826 23.0975 214.324 24.9175 221.758 30.7365C230.048 37.2263 232.952 48.8732 232.702 62.9706Z" fill="#FAFAFA" stroke="#4DC085" stroke-width="3" stroke-linecap="round" stroke-dasharray="6 8 6 12"/>
<path fill-rule="evenodd" clip-rule="evenodd" d="M214.725 100.072C214.362 120.542 220.638 163.96 208.44 178.969C191.524 199.784 141.976 193.44 118.329 192.485C109.922 192.145 95.759 188.4 94.6692 160.236C91.2067 70.6778 74.493 59.4117 158.958 60.1325C166.849 60.1991 196.346 62.0191 203.78 67.8381C212.07 74.3279 214.975 85.9748 214.725 100.072Z" fill="white"/>
<path fill-rule="evenodd" clip-rule="evenodd" d="M120.985 142.802C114.382 142.685 110.547 139.685 114.77 138.313C118.993 136.94 139.235 138.654 145.45 138.792C151.666 138.929 155.085 139.241 155.034 141.971C154.982 144.909 143.853 143.312 135.317 143.237C127.641 143.17 120.985 142.802 120.985 142.802Z" fill="#FFECEA"/>
<path fill-rule="evenodd" clip-rule="evenodd" d="M117.089 132.191C112.761 131.463 110.697 128.093 116.893 127.334C123.088 126.576 137.549 127.191 146.863 127.552C156.177 127.912 172.776 129.499 174.722 129.564C176.668 129.63 180.365 133.471 172.209 133.935C164.054 134.398 135.938 131.97 129.149 132.087C122.361 132.204 118.911 132.498 117.089 132.191Z" fill="#FFECEA"/>
<path fill-rule="evenodd" clip-rule="evenodd" d="M120.985 172.802C114.382 172.685 110.547 169.685 114.77 168.313C118.993 166.94 139.235 168.654 145.45 168.792C151.666 168.929 155.085 169.241 155.034 171.971C154.982 174.909 143.853 173.312 135.317 173.237C127.641 173.17 120.985 172.802 120.985 172.802Z" fill="#FFECEA"/>
<path fill-rule="evenodd" clip-rule="evenodd" d="M117.089 162.191C112.761 161.463 110.697 158.093 116.893 157.334C123.088 156.576 137.549 157.191 146.863 157.552C156.177 157.912 172.776 159.499 174.722 159.564C176.668 159.63 180.365 163.471 172.209 163.935C164.054 164.398 135.938 161.97 129.149 162.087C122.361 162.204 118.911 162.498 117.089 162.191Z" fill="#FFECEA"/>
<path fill-rule="evenodd" clip-rule="evenodd" d="M162.118 90.8022C155.514 90.6851 151.68 87.6847 155.903 86.3127C160.126 84.9401 180.368 86.6537 186.583 86.792C192.799 86.9292 196.218 87.2411 196.167 89.9711C196.115 92.9089 184.986 91.3123 176.45 91.2367C168.774 91.1701 162.118 90.8022 162.118 90.8022Z" fill="#FFECEA"/>
<path fill-rule="evenodd" clip-rule="evenodd" d="M147.112 80.1914C142.783 79.4628 140.72 76.0933 146.915 75.3339C153.111 74.5757 167.572 75.1906 176.886 75.5518C186.2 75.9124 202.798 77.4995 204.745 77.5644C206.69 77.6299 210.388 81.471 202.232 81.9347C194.077 82.3978 165.96 79.9702 159.172 80.0872C152.384 80.2037 148.933 80.4977 147.112 80.1914Z" fill="#FFECEA"/>
<path fill-rule="evenodd" clip-rule="evenodd" d="M111.125 99.4189C109.307 95.3718 108.44 76.6544 111.043 72.4363C113.646 68.2243 116 69.0007 123.5 69.0007C131.5 69.0007 135 70.0007 135.338 71.8264C135.741 74.0007 137.709 95.5269 134.283 98.1026C130.856 100.675 119.315 101.358 116.407 101.429C113.5 101.501 111.891 101.12 111.125 99.4189Z" fill="#FFECEA"/>
<path fill-rule="evenodd" clip-rule="evenodd" d="M169.5 93.4112C169.033 85.9352 168.56 83.2558 169.5 77.4111C170 74.303 170.375 70.9998 171 68.4998C171.927 64.7912 172 63.458 173.5 61.4112C175 59.3643 178.5 60.0188 177.5 61.4112C176.5 62.8036 174.738 69.3962 175 68.9111C176.686 65.7929 177.5 63.9998 180 61.4112C181.5 59.4998 182.5 58.9111 184.5 58.9111C186.5 58.9111 189 60.0883 191 61.9998C196.5 68.5884 184.5 80.4111 183 86.4111C179 98.4111 190.119 143.959 173.066 171.413C156.014 198.868 124.238 196.123 107.359 196C102.496 195.964 91.3915 186.301 103.927 179.803C116.713 173.175 147.006 180.806 158.601 156.702C170.196 132.598 170.194 104.502 169.5 93.4112Z" fill="#89BDDB"/>
<path d="M91.3578 91.0778C85.3483 78.5465 76.2004 80.9318 66.9751 79.4706C57.4464 77.9514 45.048 67.4639 28.9365 75.7102C13.7706 83.4788 22.7271 94.808 12.9652 107.147C4.40244 117.977 10.3716 137.532 27.1394 140.973C37.8399 143.17 49.9705 143.174 53.3492 148.696C57.1977 154.992 72.461 130.727 77.8839 126.217C82.0839 122.743 100.166 109.444 91.3578 91.0778Z" fill="#23536E"/>
<path fill-rule="evenodd" clip-rule="evenodd" d="M86.3887 137.254C92.5415 129.042 91.3083 123.298 88.6495 115.096C88.4719 114.55 89.2274 113.44 89.0387 112.869C88.8763 112.374 86.8591 112.175 86.1177 109.225C82.7639 95.8596 77.9395 85.284 63.4422 87.687C41.6979 91.2934 36.5359 108.287 39.0245 123.484C41.5131 138.681 51.2269 143.741 54.5365 150.919C59.8162 162.372 50.8332 175.692 45.9007 187.67C39.6243 202.911 77.3862 196.464 87.4203 187.082C97.4543 177.699 108.025 167.827 98.8655 164.627C85.5588 159.978 79.4414 146.526 86.3887 137.254Z" fill="#89BDDB"/>
<path d="M80.7357 90.7764C87.673 99.9049 51.2519 102.268 55.188 112.385C62.3808 130.873 67.5256 141.102 50.2501 144.154C40.8869 145.808 27.9899 120.999 37.5294 100.433C43.876 86.7593 72.2526 79.5989 80.7357 90.7764Z" fill="#23536E"/>
<path fill-rule="evenodd" clip-rule="evenodd" d="M82.4864 107.995C81.9673 107.189 82.0272 106.567 82.6701 105.784C83.2334 105.097 84.2022 105.28 84.6032 105.64C85.5087 106.453 85.7322 108.569 84.4727 108.933C83.6193 109.178 82.9193 108.669 82.4864 107.995Z" fill="#003854"/>
<path fill-rule="evenodd" clip-rule="evenodd" d="M75.4508 103.628C78.1853 100.497 80.9668 99.8575 83.2757 99.9533C83.8788 99.9779 84.3929 100.434 84.4226 100.98C84.4511 101.529 83.8262 101.684 83.2236 101.653C81.3997 101.56 78.724 102.027 76.4795 105.268C76.1693 105.715 75.6098 106.217 75.1187 105.861C74.6853 105.548 74.7032 104.483 75.4508 103.628Z" fill="#00517A"/>
<path fill-rule="evenodd" clip-rule="evenodd" d="M90.2341 120.72C90.3579 120.662 90.1792 119.817 89.6971 118.372C89.3767 117.41 89.6394 117.768 87.6284 118.668C86.2984 119.264 85.7866 119.255 86.57 120.044C87.242 120.72 88.2803 121.641 90.2341 120.72Z" fill="white"/>
<path fill-rule="evenodd" clip-rule="evenodd" d="M39.8599 183.268C41.9196 168.245 49.1368 164.819 53.3923 164.083C55.7376 163.677 48.7107 172.792 65.0789 173.401C87.6587 174.242 92.7726 161.431 99.5548 162.601C120.214 174.011 142.5 164.083 152.5 164.083C159.6 188.819 163.814 191.55 152.5 195C144.276 197.508 136.502 213.419 137.011 221.101C137.174 223.558 132.347 223.287 92.1538 223.722C46.7266 224.213 41.7045 222.094 41.3528 219.79C39.1548 205.412 38.8838 190.396 39.8599 183.268Z" fill="white"/>
<path fill-rule="evenodd" clip-rule="evenodd" d="M59.6205 117.644C55.2659 117.074 54.4001 120.036 54.2489 121.644C53.881 125.583 56.2924 127.316 59.8394 126.301C62.0598 125.666 61.7877 117.928 59.6205 117.644Z" fill="#89BDDB"/>
</g>
<defs>
<clipPath id="clip0_905_3499">
<rect width="240" height="240" fill="white"/>
</clipPath>
</defs>
</svg>
