  <svg
        xmlns="http://www.w3.org/2000/svg"
        viewBox="0 0 314 314"
        width="314"
        height="314"
        preserveAspectRatio="xMidYMid meet"
      >
        <defs>
          <clipPath id="animationMask_MrBHxtYHx4">
            <rect width="314" height="314" x="0" y="0"></rect>
          </clipPath>
        </defs>
        <g clip-path="url(#animationMask_MrBHxtYHx4)">
          <g transform="matrix(1,0,0,1,18.159,40.473)" opacity="1">
            <g opacity="1" transform="matrix(1,0,0,1,136.361,134.943)">
              <path
                fill="rgb(248,206,206)"
                fill-opacity="1"
                d="M0 0 M79.063,-110.49 C58.111000000000004,-134.694 18.046,-128.261 -2.472,-129.012 C-84.30399999999999,-132.008 -107.22200000000001,-71.46600000000001 -117.93,-26.222 C-136.11100000000002,50.6 -58.602,134.693 57.721,99.025 C69.374,95.45100000000001 83.196,85.084 90.611,76.337 C136.112,22.665000000000006 121.19900000000001,-61.81699999999999 79.063,-110.49z"
              ></path>
            </g>
          </g>
          <g
            transform="matrix(0.999,0.0436,-0.0436,0.999,38.2754,15.6843)"
            opacity="1"
          >
            <g opacity="1" transform="matrix(1,0,0,1,64.073,94.376)">
              <path
                fill="rgb(151,186,215)"
                fill-opacity="1"
                d="M0 0 M-23.518842556514194,-60.108081131970415 C-26.506378858906242,-71.40666637855472 -26.58447325188571,-82.20014058140858 -30.96715659818077,-82.4518876502504 C-34.22331328299385,-82.63828105715406 -32.14432279920998,-73.2634386253338 -32.813667156258255,-74.41396692885516 C-42.537413591121286,-90.90670086138186 -52.237029508138306,-94.56058577489995 -56.636346478832635,-88.7291887478973 C-62.69133639623924,-80.45923581969309 -48.662100855473895,-68.98018459948267 -43.314391553538016,-53.69124055351582 C-34.04909536297845,-27.367889186626652 -36.16459246775144,-6.968885691221617 -24.209592467751442,17.791114308778383 C-6.457592467751443,54.555114308778386 11.5,71.22999999999999 37.455,82.678 C63.408,94.126 63.823,60.994 47.345,51.709 C32.588,43.392 5.024407532248559,31.08711430877838 -7.058592467751441,-1.1428856912216174 C-19.140592467751443,-33.37288569122162 -18.758914047574546,-41.82023289066533 -23.518842556514194,-60.108081131970415z"
              ></path>
            </g>
          </g>
          <g
            transform="matrix(0.9996,0.0298,-0.0298,0.9996,173.8424,33.4152)"
            opacity="1"
          >
            <g opacity="1" transform="matrix(1,0,0,1,50.519,98.973)">
              <path
                fill="rgb(151,186,215)"
                fill-opacity="1"
                d="M0 0 M-37.147719807181794,7.14420737670785 C-44.59847498055741,1.588068101318444 -48.32064589637852,-5.297195882432135 -47.71064589637852,-27.411195882432136 C-46.490645896378524,-71.69019588243215 -38.908,-82.27799999999999 -15.742,-83.928 C19.007,-86.402 27.963,-65.35 29.526,-43.4 C31.088,-21.45 18.015,1.6210000000000022 18.168,18.001 C18.294,31.379 20.465,42.468 34.049,58.378 C49.707,76.72 -2.5950000000000024,86.40199999999999 -21.37,76.829 C-40.144000000000005,67.256 -46.194,51.582 -39.581,44.359 C-32.968,37.134 -23.57372353294391,17.264512641800206 -37.147719807181794,7.14420737670785z"
              ></path>
            </g>
            <g opacity="1" transform="matrix(1,0,0,1,55.048,50.194)">
              <path
                fill="rgb(47,81,117)"
                fill-opacity="1"
                d="M0 0 M-47.88203316093057,-18.011297756324723 C-43.18603316093057,-5.6972977563247245 15.42397371425777,-20.873671268719793 11.48497371425777,4.311328731280203 C6.880973714257769,33.760328731280204 20.911908588233,14.804766379561324 15.820965325969993,45.65098890277641 C15.212671997378163,49.33209894065624 15.701386328415742,49.919721598446465 15.957097689037159,49.91281657854781 C23.738991219491687,49.66724709016023 52.301209184233706,4.993851589015645 29.769,-26.594 C16.11052608963196,-45.74276723895987 -8.34937754790743,-47.86771109914106 -23.58837754790743,-45.20371109914106 C-39.277377547907435,-42.46171109914106 -51.93703316093057,-28.643297756324724 -47.88203316093057,-18.011297756324723z"
              ></path>
            </g>
            <g
              opacity="1"
              transform="matrix(0.9994,0.0339,-0.0339,0.9994,-0.044,-1.5296)"
            >
              <g opacity="1" transform="matrix(1,0,0,1,0,0)">
                <g opacity="1" transform="matrix(1,0,0,1,46.629,68.001)">
                  <path
                    fill="rgb(34,57,82)"
                    fill-opacity="1"
                    d="M0 0 M2.669,1.051 C3.114,-0.385 2.7,-1.3439999999999999 1.238,-2.372 C-0.04299999999999993,-3.2729999999999997 -1.5530000000000002,-2.676 -2.031,-1.982 C-3.114,-0.41500000000000004 -2.402,2.987 -0.137,3.157 C1.399,3.273 2.298,2.248 2.669,1.051z"
                  ></path>
                </g>
                <g opacity="1" transform="matrix(1,0,0,1,15.326,63.35)">
                  <path
                    fill="rgb(34,57,82)"
                    fill-opacity="1"
                    d="M0 0 M2.447,0.379 C2.676,-1.049 2.217,-1.8679999999999999 0.849,-2.553 C-0.3480000000000001,-3.153 -1.579,-2.309 -1.915,-1.569 C-2.676,0.10400000000000009 -1.6989999999999998,3.153 0.265,2.883 C1.597,2.7 2.258,1.57 2.447,0.379z"
                  ></path>
                </g>
              </g>
              <g opacity="1" transform="matrix(1,0,0,1,23.4,84.384)">
                <path
                  fill="rgb(255,255,255)"
                  fill-opacity="1"
                  d="M0 0 M-0.9726380665095896,1.5824142420836091 C-1.957687718069334,1.175480923249008 -3.548,-2.2699999999999996 -0.908,-2.405 C1.8120000000000003,-2.5439999999999996 3.0151983887579914,-1.906 2.8211983887579914,-0.168 C2.6481983887579914,1.374 0.7965404181283069,2.3189445994113758 -0.9726380665095896,1.5824142420836091z"
                ></path>
              </g>
              <g opacity="1" transform="matrix(1,0,0,1,47.511,62.358)">
                <path
                  fill="rgb(47,81,117)"
                  fill-opacity="1"
                  d="M0 0 M6.518,-0.584 C1.7059999999999995,-3.8320000000000003 -3.771,-3.621 -7.236,-1.945 C-8.2,-1.479 -8.778,-0.44000000000000006 -8.48,0.478 C-8.18,1.3980000000000001 -7.062,1.216 -6.069,0.817 C-3.41,-0.2490000000000001 -0.1460000000000008,-1.068 5.629,2.824 C6.427,3.362 7.670999999999999,3.832 8.258,2.932 C8.777999999999999,2.137 8.182,0.539 6.518,-0.584z"
                ></path>
              </g>
              <g opacity="1" transform="matrix(1,0,0,1,14.908,64.802)">
                <path
                  fill="rgb(47,81,117)"
                  fill-opacity="1"
                  d="M0 0 M4.311,-9.732 C1.487,-12.003 -2.393,-12.252 -5.917,-11.788 C-7.583,-11.568 -8.149,-10.264999999999999 -7.919,-9.482 C-7.661,-8.594 -6.8069999999999995,-8.648 -6.012,-8.775 C-2.0929999999999995,-9.405000000000001 0.6360000000000001,-9.639 2.718,-7.805 C5.8260000000000005,-5.068999999999999 6.474,-3.0520000000000005 3.66,3.26 C0.5700000000000003,10.187 5.736000000000001,12.251999999999999 6.554,11.667 C7.6240000000000006,10.902 5.5920000000000005,9.323 5.067,8.49 C3.6310000000000002,6.211 7.789000000000001,1.6220000000000003 7.964,-2.419 C8.149000000000001,-6.6739999999999995 6.588,-7.901 4.311,-9.732z"
                ></path>
              </g>
              <g opacity="1" transform="matrix(1,0,0,1,72.64,77.349)">
                <path
                  fill="rgb(151,186,215)"
                  fill-opacity="1"
                  d="M0 0 M-3.414,-8.654 C5.821,-9.625 7.626,-4.032 7.928,-1.003 C8.668,6.419 3.5400000000000005,9.625 -3.969,7.633 C-8.668,6.386 -8.011000000000001,-8.171 -3.414,-8.654z"
                ></path>
              </g>
              <g opacity="1" transform="matrix(1,0,0,1,74.541,81.627)">
                <path
                  fill="rgb(47,81,117)"
                  fill-opacity="1"
                  d="M0 0 M0.409,-1.872 C-0.12200000000000005,-1.9600000000000002 -1.1869999999999998,-1.763 -1.549,-1.422 C-2.766,-0.2769999999999999 -2.042,0.7289999999999999 -1.423,1.144 C-0.4620000000000001,1.789 0.357,1.96 0.939,1.6 C1.899,1.008 2.767,-1.479 0.409,-1.872z"
                ></path>
              </g>
              <g opacity="1" transform="matrix(1,0,0,1,74.508,81.506)">
                <path
                  fill="rgb(151,186,215)"
                  fill-opacity="1"
                  d="M0 0 M0.15,-0.689 C-0.04500000000000001,-0.722 -0.43699999999999994,-0.649 -0.57,-0.523 C-1.018,-0.10200000000000004 -0.751,0.269 -0.523,0.421 C-0.17000000000000004,0.659 0.13099999999999998,0.722 0.345,0.589 C0.699,0.372 1.018,-0.5439999999999999 0.15,-0.689z"
                ></path>
              </g>
            </g>
          </g>
          <g
            transform="matrix(0.9996,0.0298,-0.0298,0.9996,122.1686,159.2514)"
            opacity="1"
          >
            <g opacity="1" transform="matrix(1,0,0,1,93.487,63.321)">
              <path
                fill="rgb(255,255,255)"
                fill-opacity="1"
                d="M0 0 M32.45964633753229,-49.249585237567324 C26.459646337532288,-51.249585237567324 17.68975166188333,-31.520208164549224 -12.35724833811667,-35.43020816454922 C-41.222248338116664,-39.18820816454922 -24.848866475665126,-58.55196148253446 -28.357866475665126,-57.75596148253446 C-29.555866475665127,-57.48496148253446 -30.694000000000003,-57.22 -31.821,-56.907 C-50.774,-53.873 -73.08152839041895,-60.428732951330254 -79.29413399464127,-62.530845370395326 C-81.40042463273369,-63.245072424369916 -92.95930925920936,-24.0701958995315 -90.24130925920936,-21.2471958995315 C-77.20630925920936,-7.707195899531502 -65.533,2.7989999999999995 -81.159,51.618 C-82.2,53.605000000000004 -83.31700000000001,55.736000000000004 -84.519,58.09 C-87.061,63.071000000000005 -23.195,60.77 -11.186,60.59 C22.314,60.09 39.10695051587408,44.65280833015942 44.314,36.59 C92.99866200418997,-38.78746010630381 45.256646337532295,-44.983585237567326 32.45964633753229,-49.249585237567324z"
              ></path>
            </g>
          </g>
        </g>
      </svg>