<svg width="240" height="240" viewBox="0 0 240 240" fill="none" xmlns="http://www.w3.org/2000/svg">
<path fill-rule="evenodd" clip-rule="evenodd" d="M197.919 63.8647C185.249 39.774 154.644 11.829 85.4047 31.1131C-17.02 59.64 26.5528 182.589 85.4046 201.692C226.392 247.455 219.956 105.767 197.919 63.8647Z" fill="#CADCEA"/>
<path d="M184.53 127.006C154.96 128.547 112.059 130.783 106.07 118.559C100.541 107.272 99.5991 71.4099 100.415 54.3564C100.325 46.4998 100.218 37.19 100.596 27.4991C159.213 16.0724 186.217 41.6124 197.919 63.8641C204.984 77.297 210.445 100.985 209.96 125.465C207.366 126.011 204.863 126.191 202.741 126.227C197.886 126.31 191.588 126.638 184.53 127.006Z" fill="white"/>
<path d="M175.05 70.8428C173.361 70.9006 172.039 72.3167 172.097 74.0058C172.154 75.6949 173.57 77.0173 175.26 76.9595L199.2 75.7983C200.889 75.7405 202.212 74.3243 202.154 72.6352C202.096 70.9462 200.68 69.6237 198.991 69.6815L175.05 70.8428Z" fill="#CADCEA"/>
<path d="M175.112 83.6224C173.422 83.6802 172.1 85.0964 172.158 86.7854C172.216 88.4745 173.632 89.797 175.321 89.7392L205.553 88.3627C207.242 88.3049 208.564 86.8887 208.507 85.1996C208.449 83.5106 207.033 82.1881 205.344 82.2459L175.112 83.6224Z" fill="#CADCEA"/>
<path fill-rule="evenodd" clip-rule="evenodd" d="M124.738 72.0091C124.047 74.132 124.029 76.7563 123.991 82.0048L123.983 83.2047C123.946 88.4532 123.927 91.0775 124.588 93.21C125.973 97.6762 129.439 101.192 133.886 102.639C136.009 103.33 138.633 103.349 143.881 103.386C149.13 103.423 151.754 103.442 153.887 102.781C158.353 101.396 161.869 97.9296 163.316 93.4834C164.007 91.3604 164.026 88.7362 164.063 83.4876L164.071 82.2877C164.108 77.0392 164.127 74.415 163.466 72.2825C162.081 67.8163 158.615 64.3003 154.169 62.853C152.046 62.162 149.421 62.1435 144.173 62.1064C138.924 62.0693 136.3 62.0508 134.168 62.7118C129.701 64.0962 126.185 67.5629 124.738 72.0091ZM150.916 74.1674C150.668 75.3242 149.542 76.0684 148.368 75.8148C147.798 75.6922 147.272 75.6351 146.757 75.638C143.368 75.6572 140.542 77.9439 139.63 81.0405L143.958 80.8542C145.142 80.8476 146.108 81.803 146.115 82.9869C146.121 84.1708 145.166 85.1371 143.982 85.1438L139.654 85.33C140.601 88.4161 144.328 89.9835 148.795 89.585C149.31 89.5821 149.835 89.5191 150.404 89.3901C151.555 89.1204 152.706 89.8546 152.97 91.0085C153.231 92.1652 151.93 93.5166 150.776 93.7777C149.911 93.9713 149.059 94.0734 148.244 94.078C140.287 94.5021 136.279 90.8313 135.233 85.355L132.494 85.5173C131.31 85.524 130.343 84.5686 130.337 83.3847C130.33 82.2008 131.285 81.2345 132.469 81.2278L135.209 81.0655C136.14 74.251 140.962 71.3811 146.733 71.3485C147.548 71.3439 148.401 71.4363 149.268 71.6201C150.425 71.8681 151.164 73.0078 150.916 74.1674Z" fill="#FF6340"/>
<path d="M184.821 45.9623C182.785 43.9278 180.565 41.9635 178.148 40.1055L174.81 40.2397C173.121 40.2975 171.799 41.7136 171.856 43.4027C171.914 45.0918 173.33 46.4143 175.019 46.3565L184.821 45.9623Z" fill="#CADCEA"/>
<path fill-rule="evenodd" clip-rule="evenodd" d="M123.233 32.3262C123.257 28.867 123.274 26.5477 123.48 24.7606C128.326 24.5832 132.898 24.6993 137.21 25.0724C135.8 26.6031 134.819 28.6849 134.45 31.3869L131.711 31.5492C130.527 31.5559 129.572 32.5222 129.578 33.7061C129.585 34.89 130.551 35.8455 131.735 35.8388L134.474 35.6765C135.521 41.1528 139.528 44.8236 147.485 44.3994C148.3 44.3948 149.152 44.2927 150.018 44.0991C151.171 43.8381 152.472 42.4866 152.211 41.3299C151.947 40.176 150.796 39.4419 149.645 39.7115C149.077 39.8405 148.551 39.9036 148.036 39.9065C143.569 40.3049 139.842 38.7375 138.896 35.6514L143.224 35.4652C144.408 35.4585 145.363 34.4922 145.356 33.3083C145.35 32.1244 144.383 31.169 143.199 31.1757L138.871 31.3619C139.682 28.6087 142.007 26.4958 144.894 26.0475C151.75 27.2076 157.867 29.0577 163.321 31.4134C163.319 31.7896 163.316 32.1806 163.313 32.5873L163.313 32.6091L163.304 33.809C163.267 39.0575 163.249 41.6818 162.558 43.8048C161.11 48.2509 157.594 51.7176 153.128 53.102C150.996 53.763 148.371 53.7445 143.123 53.7074C137.874 53.6704 135.25 53.6518 133.127 52.9608C128.681 51.5135 125.214 47.9975 123.83 43.5313C123.169 41.3988 123.187 38.7746 123.225 33.5261L123.233 32.3262Z" fill="#FF6340"/>
<path fill-rule="evenodd" clip-rule="evenodd" d="M112.934 91.7937C112.316 96.4809 102.608 98.3219 99.7993 94.7698C98.1455 92.6782 98.489 87.174 100.182 85.8186C103.128 83.4612 114.361 80.9751 112.934 91.7937ZM98.8576 84.8015C96.7729 86.4691 96.3503 93.2434 98.3862 95.8183C101.843 100.19 113.791 97.9234 114.551 92.1553C116.307 78.8399 102.482 81.9001 98.8576 84.8015Z" fill="#0B5077"/>
<path d="M148.984 209.716C147.5 198.808 144.007 187.855 139.979 175.228L139.919 175.04C136.365 163.895 122.595 174.847 126.731 188.729C129.124 196.762 130.602 204.105 131.482 210.622C137.764 210.83 143.589 210.508 148.984 209.716Z" fill="#88BCDA"/>
<path fill-rule="evenodd" clip-rule="evenodd" d="M82.8231 74.7253C66.678 68.9516 54.1416 88.7334 62.0669 112.59C65.0979 120.506 70.4583 125.803 71.1421 134.469C71.8036 142.851 68.4057 149.505 62.3178 156.391C60.2613 158.716 79.3385 166.297 94.0219 164.065C103.846 162.572 106.188 154.335 104.468 150.462C101.966 144.825 94.9741 130.221 103.205 122.335C110.933 114.931 113.377 101.291 110.349 89.6964C104.844 68.616 90.1751 77.3545 82.8231 74.7253Z" fill="#88BCDA"/>
<path fill-rule="evenodd" clip-rule="evenodd" d="M103.794 88.7657C106.333 87.4567 107.359 87.1036 110.088 86.3852C111.499 86.0139 113.721 85.0504 113.835 86.4967C113.892 87.219 111.88 87.4932 110.645 87.8431C107.188 88.8223 106.901 88.6226 103.916 90.3116C103.351 90.775 102.486 91.2236 102.233 90.7653C102.009 90.3601 102.627 89.7501 103.794 88.7657Z" fill="#0B5077"/>
<path d="M133.484 210.671C132.895 207.176 132.357 203.459 131.83 199.31C133.116 198.485 134.626 197.143 136.522 195.157C138.191 193.136 139.862 191.606 141.29 190.3C144.425 187.43 146.385 185.635 144.576 182.081C134.888 163.041 118.083 152.006 112.18 150.808C110.001 149.839 107.547 149.023 104.781 148.378C103.819 148.153 103.165 148.451 101.921 149.017C100.183 149.808 97.2934 151.122 90.8039 152.271C77.4555 154.128 70.2129 153.065 65.3682 151.931C65.2496 151.866 65.1202 151.819 64.9796 151.79C64.7275 151.739 64.4765 151.693 64.2266 151.653L64.0494 151.608C63.6687 151.512 63.2873 151.474 62.9062 151.491C54.3743 150.773 34.6739 160.885 36.978 207.736C37.4438 217.208 64.7019 216.365 84.3406 216.952C103.68 217.531 134.545 216.952 133.484 210.671Z" fill="white"/>
<path fill-rule="evenodd" clip-rule="evenodd" d="M48.6158 98.2454C48.9893 86.6306 57.8613 57.9122 88.5742 66.8905C119.32 79.8487 98.3193 85.7687 112.126 109.383C121.869 120.124 81.5425 131.344 70.9816 132.212C48.463 134.063 47.9592 118.661 48.6158 98.2454Z" fill="#0B5077"/>
<path fill-rule="evenodd" clip-rule="evenodd" d="M107.199 11.413C104.24 8.33975 101.346 8.24527 99.7732 10.8909C98.3517 13.2832 101.194 15.2289 102.432 16.3113C105.851 19.2992 108.029 22.4577 110.124 18.6162C112.219 14.7753 109.699 13.6531 107.199 11.413Z" fill="#F2D249"/>
<path fill-rule="evenodd" clip-rule="evenodd" d="M98.4251 26.705C94.1399 26.7391 92.0684 28.7669 92.9051 31.7148C93.6624 34.3799 97.0454 33.6581 98.6905 33.5038C103.232 33.0786 107.039 33.666 105.693 29.5222C104.348 25.3786 101.786 26.4318 98.4251 26.705Z" fill="#F2D249"/>
</svg>
